<svg width="100" height="100" viewBox="0 0 24 24" fill="none" xmlns="http://www.w3.org/2000/svg">
  <path d="M12 6C10.34 6 9 7.34 9 9C9 11.5 12 15 12 15C12 15 15 11.5 15 9C15 7.34 13.66 6 12 6ZM12 9.5C11.67 9.5 11.5 9.33 11.5 9C11.5 8.67 11.67 8.5 12 8.5C12.33 8.5 12.5 8.67 12.5 9C12.5 9.33 12.33 9.5 12 9.5Z" fill="red"/>
  <g stroke="#FF4400" stroke-width="2">
    <line x1="12" y1="1" x2="12" y2="5"/>
    <line x1="4.22" y1="4.22" x2="6.34" y2="6.34"/>
    <line x1="17.66" y1="6.34" x2="19.78" y2="4.22"/>
  </g>
</svg>
